<svg width="50" height="50" viewBox="0 0 50 50" fill="none" xmlns="http://www.w3.org/2000/svg">
<path d="M48.3242 15.3477C47.8969 14.2234 46.3226 14.1438 41.1984 15.8875L41.1992 15.8867C39.8664 16.3767 38.5203 16.8298 37.1625 17.2453L37.1453 17.2289L36.7195 15.8875C36.6289 15.9109 36.5422 15.9305 36.4523 15.9531C36.2203 14.7383 35.3187 10.2414 34.4398 8.97344C32.7687 6.56563 34.6398 5.23828 33.343 3.05469C32.5289 1.68516 31.7641 0.989063 30.6242 2.15469C28.7539 4.06641 26.5961 4.87656 25 4.87656C23.4055 4.87656 21.2476 4.06641 19.3773 2.15313C18.2375 0.9875 17.4726 1.68359 16.6586 3.05313C15.3617 5.23594 17.232 6.56406 15.5617 8.97188C14.6812 10.2398 13.7812 14.7359 13.5492 15.9516L13.2828 15.8867L12.8547 17.2289L12.8383 17.2453C12.0777 17.0125 11.3208 16.7677 10.568 16.5109C9.94218 16.2844 9.34531 16.0719 8.80234 15.8875C3.68046 14.1453 2.10546 14.2242 1.67812 15.3484C0.883587 17.4391 4.42109 24.7375 7.68671 25.6687C7.25153 27.2316 7.03102 28.8464 7.03124 30.4688C7.03124 40.3945 15.0742 48.4375 25.0016 48.4375C34.9273 48.4375 42.9687 40.3945 42.9687 30.4688C42.9687 28.8055 42.7383 27.1969 42.3156 25.668C45.5812 24.7391 49.1195 17.4383 48.3242 15.3477ZM25.0016 46.875C15.9547 46.875 8.59374 39.5156 8.59374 30.4688C8.59374 26.1805 10.2617 22.2828 12.9656 19.357C13.6656 20.0156 14.3406 20.7047 14.8797 21.3641C18.8453 26.2125 31.1562 26.2125 35.1211 21.3641C35.6601 20.7047 36.3344 20.0156 37.0344 19.357C39.7383 22.282 41.4062 26.1805 41.4062 30.4688C41.4062 39.5156 34.0469 46.875 25.0016 46.875Z" fill="#666666"/>
<path d="M30.9703 37.45C27.1226 40.2633 22.8547 40.2469 19.032 37.45C18.5719 37.1141 18.157 37.6969 18.4687 38.2352C19.6328 40.2469 21.9867 42.0383 25 42.0383C28.0148 42.0383 30.368 40.2469 31.532 38.2352C31.8453 37.6969 31.4297 37.1141 30.9703 37.45ZM21.107 28.7922C21.1068 28.3988 21.0291 28.0094 20.8784 27.6461C20.7277 27.2827 20.5069 26.9526 20.2286 26.6746C19.9503 26.3966 19.62 26.1762 19.2565 26.0258C18.893 25.8755 18.5035 25.7982 18.1101 25.7984C17.7168 25.7986 17.3273 25.8763 16.964 26.027C16.6007 26.1778 16.2706 26.3986 15.9926 26.6768C15.7146 26.9551 15.4941 27.2855 15.3438 27.6489C15.1935 28.0124 15.1162 28.402 15.1164 28.7953C15.1168 29.5897 15.4328 30.3514 15.9948 30.9129C16.5568 31.4743 17.3189 31.7895 18.1133 31.7891C18.9077 31.7886 19.6694 31.4727 20.2308 30.9107C20.7923 30.3486 21.1074 29.5866 21.107 28.7922Z" fill="#666666"/>
<path d="M31.8875 31.7867C33.5413 31.7867 34.882 30.446 34.882 28.7922C34.882 27.1384 33.5413 25.7977 31.8875 25.7977C30.2337 25.7977 28.893 27.1384 28.893 28.7922C28.893 30.446 30.2337 31.7867 31.8875 31.7867Z" fill="#666666"/>
</svg>
