<svg width="50" height="50" viewBox="0 0 50 50" fill="none" xmlns="http://www.w3.org/2000/svg">
<path d="M31.5312 13.6562C31.3099 13.5279 31.0654 13.4447 30.8117 13.4114C30.5581 13.3781 30.3003 13.3953 30.0534 13.4622C29.8064 13.529 29.5751 13.644 29.3729 13.8007C29.1706 13.9574 29.0014 14.1526 28.875 14.375L17.7187 33.6875C17.5904 33.9088 17.5072 34.1534 17.4739 34.407C17.4406 34.6607 17.4578 34.9184 17.5246 35.1654C17.5915 35.4123 17.7065 35.6436 17.8632 35.8459C18.0199 36.0481 18.2151 36.2173 18.4375 36.3438C18.7285 36.5213 19.0657 36.6083 19.4062 36.5938C19.7473 36.5923 20.0822 36.5022 20.378 36.3324C20.6739 36.1626 20.9205 35.9188 21.0937 35.625L32.25 16.3125C32.3826 16.0923 32.4693 15.8475 32.5049 15.593C32.5405 15.3384 32.5243 15.0792 32.4571 14.8311C32.39 14.5829 32.2734 14.351 32.1142 14.1491C31.9551 13.9472 31.7568 13.7795 31.5312 13.6562ZM22.9687 20.0937C23.0366 18.3136 22.3979 16.5788 21.1921 15.2676C19.9862 13.9563 18.3108 13.1749 16.5312 13.0938C14.749 13.175 13.0705 13.9553 11.8597 15.2656C10.6488 16.5759 10.0031 18.3106 10.0625 20.0937C9.99467 21.8822 10.6366 23.6249 11.8483 24.942C13.0601 26.2591 14.7434 27.0438 16.5312 27.125C18.3165 27.0439 19.9967 26.2582 21.2034 24.9401C22.4102 23.622 23.045 21.8792 22.9687 20.0937ZM16.5312 23.2187C15.7822 23.1321 15.0961 22.7577 14.6179 22.1745C14.1398 21.5914 13.907 20.8453 13.9687 20.0937C13.8988 19.3405 14.1286 18.59 14.6083 18.0051C15.088 17.4201 15.7789 17.0477 16.5312 16.9687C17.2813 17.0475 17.9694 17.421 18.444 18.007C18.9187 18.5931 19.1412 19.3437 19.0625 20.0937C19.1329 20.8422 18.9073 21.5883 18.4342 22.1725C17.961 22.7566 17.2779 23.1322 16.5312 23.2187ZM33.4687 22.875C31.6892 22.9562 30.0138 23.7376 28.8079 25.0488C27.6021 26.3601 26.9634 28.0949 27.0312 29.875C26.9549 31.6604 27.5898 33.4033 28.7965 34.7213C30.0033 36.0394 31.6835 36.8251 33.4687 36.9063C35.2566 36.8251 36.9399 36.0404 38.1516 34.7233C39.3634 33.4062 40.0053 31.6634 39.9375 29.875C39.9969 28.0919 39.3512 26.3572 38.1403 25.0469C36.9295 23.7366 35.251 22.9562 33.4687 22.875ZM33.4687 33C32.722 32.9134 32.0389 32.5378 31.5658 31.9537C31.0927 31.3696 30.8671 30.6234 30.9375 29.875C30.8671 29.1266 31.0927 28.3804 31.5658 27.7963C32.0389 27.2122 32.722 26.8366 33.4687 26.75C34.2211 26.829 34.912 27.2013 35.3917 27.7863C35.8714 28.3713 36.1012 29.1217 36.0312 29.875C36.093 30.6266 35.8602 31.3727 35.3821 31.9558C34.9039 32.5389 34.2178 32.9133 33.4687 33Z" fill="#FF0141"/>
<path d="M25 1.5625C18.5781 1.36029 12.3385 3.71486 7.65121 8.10921C2.96391 12.5036 0.212089 18.5785 0 25C0.212089 31.4215 2.96391 37.4964 7.65121 41.8908C12.3385 46.2851 18.5781 48.6397 25 48.4375C31.4219 48.6397 37.6615 46.2851 42.3488 41.8908C47.0361 37.4964 49.7879 31.4215 50 25C49.7879 18.5785 47.0361 12.5036 42.3488 8.10921C37.6615 3.71486 31.4219 1.36029 25 1.5625ZM25 44.5312C19.6162 44.7258 14.3744 42.7801 10.4214 39.1199C6.46835 35.4597 4.12583 30.3829 3.90625 25C4.12583 19.6171 6.46835 14.5403 10.4214 10.8801C14.3744 7.21988 19.6162 5.27423 25 5.46875C30.3838 5.27423 35.6256 7.21988 39.5786 10.8801C43.5316 14.5403 45.8742 19.6171 46.0938 25C45.8742 30.3829 43.5316 35.4597 39.5786 39.1199C35.6256 42.7801 30.3838 44.7258 25 44.5312Z" fill="#FF0141"/>
</svg>
