<svg width="30" height="30" viewBox="0 0 30 30" fill="none" xmlns="http://www.w3.org/2000/svg">
<path d="M15 2.8125C12.5895 2.8125 10.2332 3.52728 8.22899 4.86646C6.22476 6.20564 4.66266 8.10907 3.74022 10.336C2.81777 12.563 2.57642 15.0135 3.04668 17.3777C3.51694 19.7418 4.67768 21.9134 6.38214 23.6179C8.08659 25.3223 10.2582 26.4831 12.6223 26.9533C14.9865 27.4236 17.437 27.1822 19.664 26.2598C21.8909 25.3373 23.7944 23.7752 25.1335 21.771C26.4727 19.7668 27.1875 17.4105 27.1875 15C27.1841 11.7687 25.899 8.67076 23.6141 6.3859C21.3292 4.10104 18.2313 2.81591 15 2.8125ZM11.9098 19.6875H18.0902C17.4609 21.8367 16.4062 23.7738 15 25.2996C13.5938 23.7738 12.5391 21.8367 11.9098 19.6875ZM11.4844 17.8125C11.1734 15.9504 11.1734 14.0496 11.4844 12.1875H18.5156C18.8266 14.0496 18.8266 15.9504 18.5156 17.8125H11.4844ZM4.6875 15C4.68668 14.049 4.81802 13.1024 5.07773 12.1875H9.58477C9.30508 14.0521 9.30508 15.9479 9.58477 17.8125H5.07773C4.81802 16.8976 4.68668 15.951 4.6875 15ZM18.0902 10.3125H11.9098C12.5391 8.16328 13.5938 6.22617 15 4.70039C16.4062 6.22617 17.4609 8.16328 18.0902 10.3125ZM20.4152 12.1875H24.9223C25.4426 14.0264 25.4426 15.9736 24.9223 17.8125H20.4152C20.6949 15.9479 20.6949 14.0521 20.4152 12.1875ZM24.184 10.3125H20.032C19.5536 8.4299 18.7501 6.64529 17.6578 5.03906C19.0533 5.41409 20.3549 6.07702 21.4789 6.98523C22.6029 7.89344 23.5243 9.02682 24.184 10.3125ZM12.3422 5.03906C11.2499 6.64529 10.4464 8.4299 9.96797 10.3125H5.81602C6.4757 9.02682 7.39714 7.89344 8.5211 6.98523C9.64507 6.07702 10.9467 5.41409 12.3422 5.03906ZM5.81602 19.6875H9.96797C10.4464 21.5701 11.2499 23.3547 12.3422 24.9609C10.9467 24.5859 9.64507 23.923 8.5211 23.0148C7.39714 22.1066 6.4757 20.9732 5.81602 19.6875ZM17.6578 24.9609C18.7501 23.3547 19.5536 21.5701 20.032 19.6875H24.184C23.5243 20.9732 22.6029 22.1066 21.4789 23.0148C20.3549 23.923 19.0533 24.5859 17.6578 24.9609Z" fill="#FE3A00"/>
</svg>
