<svg width="20" height="20" viewBox="0 0 20 20" fill="none" xmlns="http://www.w3.org/2000/svg">
<path fill-rule="evenodd" clip-rule="evenodd" d="M6.04167 14.1667L12.2917 10L6.04167 5.83334C5.95959 5.77862 5.88909 5.70828 5.83421 5.62631C5.77932 5.54435 5.74111 5.45238 5.72176 5.35565C5.70242 5.25893 5.70231 5.15934 5.72146 5.06257C5.7406 4.9658 5.77862 4.87375 5.83333 4.79167C5.94384 4.62591 6.11567 4.51084 6.31102 4.47177C6.40775 4.45243 6.50734 4.45232 6.60411 4.47146C6.70087 4.49061 6.79292 4.52862 6.875 4.58334L13.96 9.30667C14.0741 9.38278 14.1677 9.48588 14.2324 9.60683C14.2972 9.72777 14.331 9.86283 14.331 10C14.331 10.1372 14.2972 10.2722 14.2324 10.3932C14.1677 10.5141 14.0741 10.6172 13.96 10.6933L6.875 15.4167C6.79292 15.4714 6.70087 15.5094 6.60411 15.5286C6.50734 15.5477 6.40775 15.5476 6.31102 15.5282C6.21429 15.5089 6.12232 15.4707 6.04036 15.4158C5.9584 15.3609 5.88805 15.2904 5.83333 15.2083C5.77862 15.1263 5.7406 15.0342 5.72146 14.9374C5.70231 14.8407 5.70242 14.7411 5.72176 14.6444C5.74111 14.5476 5.77932 14.4557 5.83421 14.3737C5.88909 14.2917 5.95959 14.2214 6.04167 14.1667Z" fill="#FE3A00"/>
</svg>
