<svg width="40" height="40" viewBox="0 0 40 40" fill="none" xmlns="http://www.w3.org/2000/svg">
<path d="M5 11.25C5 8.30333 5 6.83 5.91667 5.91667C6.82833 5 8.30167 5 11.25 5C14.1967 5 15.67 5 16.5833 5.91667C17.5 6.83 17.5 8.30333 17.5 11.25C17.5 14.1967 17.5 15.67 16.5833 16.5833C15.67 17.5 14.1967 17.5 11.25 17.5C8.30333 17.5 6.83 17.5 5.91667 16.5833C5 15.6717 5 14.1983 5 11.25ZM5 28.7617C5 25.815 5 24.3417 5.91667 23.4283C6.83 22.5117 8.30333 22.5117 11.25 22.5117C14.1967 22.5117 15.67 22.5117 16.5833 23.4283C17.5 24.3417 17.5 25.815 17.5 28.7617C17.5 31.7083 17.5 33.1817 16.5833 34.095C15.67 35.0117 14.1967 35.0117 11.25 35.0117C8.30333 35.0117 6.83 35.0117 5.91667 34.095C5 33.1833 5 31.7083 5 28.7617ZM22.5 11.25C22.5 8.30333 22.5 6.83 23.4167 5.91667C24.33 5 25.8033 5 28.75 5C31.6967 5 33.17 5 34.0833 5.91667C35 6.83 35 8.30333 35 11.25C35 14.1967 35 15.67 34.0833 16.5833C33.17 17.5 31.6967 17.5 28.75 17.5C25.8033 17.5 24.33 17.5 23.4167 16.5833C22.5 15.67 22.5 14.1967 22.5 11.25ZM22.5 28.7617C22.5 25.815 22.5 24.3417 23.4167 23.4283C24.33 22.5117 25.8033 22.5117 28.75 22.5117C31.6967 22.5117 33.17 22.5117 34.0833 23.4283C35 24.3417 35 25.815 35 28.7617C35 31.7083 35 33.1817 34.0833 34.095C33.17 35.0117 31.6967 35.0117 28.75 35.0117C25.8033 35.0117 24.33 35.0117 23.4167 34.095C22.5 33.1817 22.5 31.7083 22.5 28.7617Z" stroke="#FF0141" stroke-width="3.125" stroke-linecap="round" stroke-linejoin="round"/>
</svg>
