<svg width="25" height="25" viewBox="0 0 25 25" fill="none" xmlns="http://www.w3.org/2000/svg">
<path d="M12.5 0.0298157C7.49712 0.0298157 3.28077 3.49712 1.92308 8.2327C0.709615 8.96347 0 10.3712 0 12.0192C0 14.4087 1.45673 16.3462 3.84615 16.3462C4.10117 16.3462 4.34574 16.2449 4.52606 16.0645C4.70639 15.8842 4.80769 15.6396 4.80769 15.3846V8.65385C4.80769 8.21155 4.49327 7.86443 4.08654 7.75193C5.49038 4.3077 8.73077 1.89424 12.5 1.89424C16.2692 1.89424 19.5096 4.3077 20.9135 7.75289C20.5067 7.86539 20.1923 8.21155 20.1923 8.65385V15.3846C20.1923 15.6396 20.2936 15.8842 20.4739 16.0645C20.6543 16.2449 20.8988 16.3462 21.1538 16.3462C21.3779 16.3462 21.5779 16.3192 21.7846 16.2856C21.474 18.0798 20.7202 19.4173 19.9519 20.3433C19.5585 20.8212 19.104 21.2454 18.6 21.6048C18.4571 21.7067 18.3063 21.7971 18.149 21.875C18.0933 21.9019 18.0471 21.9269 18.0288 21.9356H16.226C15.8798 20.9298 14.7779 20.1923 13.4615 20.1923C11.8683 20.1923 10.5769 21.2692 10.5769 22.5962C10.5769 23.9231 11.8683 25 13.4615 25C14.7779 25 15.8798 24.2615 16.226 23.2567H18.1192C18.4442 23.2567 18.5269 23.1702 18.7202 23.0769C18.9125 22.9827 19.1404 22.8548 19.3808 22.6865C19.8615 22.35 20.4433 21.8596 21.0038 21.1837C22.0173 19.9625 22.9615 18.15 23.1971 15.7154C24.3317 14.9615 25 13.6077 25 12.0192C25 10.3712 24.2904 8.96443 23.0769 8.2327C21.7192 3.49712 17.5029 0.0307772 12.5 0.0307772V0.0298157Z" fill="white"/>
</svg>
