<svg width="38" height="38" viewBox="0 0 38 38" fill="none" xmlns="http://www.w3.org/2000/svg">
<g id="Group">
<path id="Vector" d="M17.4375 23.1667C17.0231 23.1667 16.6257 23.002 16.3326 22.709C16.0396 22.416 15.875 22.0186 15.875 21.6042C15.875 21.1898 16.0396 20.7923 16.3326 20.4993C16.6257 20.2063 17.0231 20.0417 17.4375 20.0417C17.8519 20.0417 18.2493 20.2063 18.5424 20.4993C18.8354 20.7923 19 21.1898 19 21.6042C19 22.0186 18.8354 22.416 18.5424 22.709C18.2493 23.002 17.8519 23.1667 17.4375 23.1667Z" fill="#FF0141"/>
<path id="Vector_2" fill-rule="evenodd" clip-rule="evenodd" d="M3.82187 14.8333C4.02396 14.8333 4.22292 14.8167 4.41667 14.7833V23.1667H1.8125C1.67437 23.1667 1.54189 23.2215 1.44422 23.3192C1.34654 23.4169 1.29167 23.5494 1.29167 23.6875V24.7292C1.29167 24.8673 1.34654 24.9998 1.44422 25.0975C1.54189 25.1951 1.67437 25.25 1.8125 25.25H36.1875C36.3256 25.25 36.4581 25.1951 36.5558 25.0975C36.6535 24.9998 36.7083 24.8673 36.7083 24.7292V23.6875C36.7083 23.5494 36.6535 23.4169 36.5558 23.3192C36.4581 23.2215 36.3256 23.1667 36.1875 23.1667H33.5833V14.7833C33.7771 14.8167 33.976 14.8333 34.1781 14.8333C36.1594 14.8333 37.75 13.2167 37.75 11.2406V8.75104C37.7501 8.42071 37.6926 8.0929 37.5802 7.78229L35.3094 1.52188C35.1747 1.14926 34.9284 0.827226 34.604 0.599634C34.2797 0.372042 33.8931 0.249954 33.4969 0.25H4.50208C4.10609 0.25046 3.71986 0.372898 3.39593 0.600658C3.07199 0.828418 2.82609 1.15044 2.69167 1.52292L0.420833 7.78229C0.308005 8.09282 0.250195 8.42065 0.25 8.75104V11.2406C0.25 13.2167 1.84062 14.8333 3.82187 14.8333ZM2.37917 8.49271L4.61354 2.33333H33.3854L35.6198 8.49271C35.651 8.57604 35.6656 8.6625 35.6656 8.75104V11.2406C35.6681 11.6381 35.5128 12.0203 35.2337 12.3033C34.9546 12.5863 34.5745 12.747 34.1771 12.75C33.3646 12.75 32.6896 12.0833 32.6896 11.2406C32.6896 10.9644 32.5798 10.6994 32.3845 10.5041C32.1891 10.3087 31.9242 10.199 31.6479 10.199C31.3716 10.199 31.1067 10.3087 30.9113 10.5041C30.716 10.6994 30.6062 10.9644 30.6062 11.2406C30.6087 11.6381 30.4534 12.0203 30.1743 12.3033C29.8952 12.5863 29.5152 12.747 29.1177 12.75C28.3052 12.75 27.6302 12.0833 27.6302 11.2417C27.6302 10.9654 27.5205 10.7004 27.3251 10.5051C27.1298 10.3097 26.8648 10.2 26.5885 10.2C26.3123 10.2 26.0473 10.3097 25.852 10.5051C25.6566 10.7004 25.5469 10.9654 25.5469 11.2417C25.5469 12.0833 24.8719 12.75 24.0583 12.75C23.2448 12.75 22.5708 12.0833 22.5708 11.2406C22.5708 10.9644 22.4611 10.6994 22.2657 10.5041C22.0704 10.3087 21.8054 10.199 21.5292 10.199C21.2529 10.199 20.9879 10.3087 20.7926 10.5041C20.5972 10.6994 20.4875 10.9644 20.4875 11.2406C20.4903 11.638 20.3351 12.0202 20.0562 12.3032C19.7773 12.5863 19.3974 12.747 19 12.75C18.6027 12.747 18.2229 12.5865 17.9438 12.3037C17.6647 12.0209 17.5092 11.639 17.5115 11.2417C17.5115 10.9654 17.4017 10.7004 17.2064 10.5051C17.011 10.3097 16.7461 10.2 16.4698 10.2C16.1935 10.2 15.9286 10.3097 15.7332 10.5051C15.5379 10.7004 15.4281 10.9654 15.4281 11.2417C15.4281 12.0833 14.7542 12.75 13.9406 12.75C13.1271 12.75 12.4521 12.0833 12.4521 11.2406C12.4521 10.9644 12.3423 10.6994 12.147 10.5041C11.9516 10.3087 11.6867 10.199 11.4104 10.199C11.1341 10.199 10.8692 10.3087 10.6738 10.5041C10.4785 10.6994 10.3687 10.9644 10.3687 11.2406C10.3687 12.0823 9.69479 12.75 8.88125 12.75C8.06771 12.75 7.39271 12.0833 7.39271 11.2406C7.39271 10.9644 7.28296 10.6994 7.08761 10.5041C6.89226 10.3087 6.62731 10.199 6.35104 10.199C6.07477 10.199 5.80982 10.3087 5.61447 10.5041C5.41912 10.6994 5.30938 10.9644 5.30938 11.2406C5.30938 12.0823 4.63542 12.75 3.82187 12.75C3.00729 12.75 2.33333 12.0833 2.33333 11.2406V8.75104C2.33331 8.66291 2.34883 8.57546 2.37917 8.49271ZM31.5 13.9187C30.8473 14.5087 29.9985 14.8347 29.1187 14.8333C28.6482 14.8339 28.1822 14.7408 27.748 14.5595C27.3138 14.3781 26.92 14.1122 26.5896 13.7771C26.2591 14.1123 25.8651 14.3783 25.4307 14.5597C24.9963 14.741 24.5301 14.834 24.0594 14.8333C23.5888 14.8339 23.1228 14.7408 22.6886 14.5595C22.2544 14.3781 21.8606 14.1122 21.5302 13.7771C21.1997 14.1123 20.8057 14.3783 20.3713 14.5597C19.9369 14.741 19.4707 14.834 19 14.8333C18.5293 14.834 18.0631 14.741 17.6287 14.5597C17.1943 14.3783 16.8003 14.1123 16.4698 13.7771C16.1394 14.1122 15.7456 14.3781 15.3114 14.5595C14.8772 14.7408 14.4112 14.8339 13.9406 14.8333C12.95 14.8333 12.0552 14.4281 11.4104 13.7771C11.08 14.1122 10.6862 14.3781 10.252 14.5595C9.81779 14.7408 9.35182 14.8339 8.88125 14.8333C7.96458 14.8333 7.13125 14.4865 6.5 13.9187V23.1667H9.10417C8.96603 23.1667 8.83356 23.1118 8.73588 23.0141C8.63821 22.9164 8.58333 22.784 8.58333 22.6458V20.5625C8.58333 20.4244 8.63821 20.2919 8.73588 20.1942C8.83356 20.0965 8.96603 20.0417 9.10417 20.0417H12.2292C12.3673 20.0417 12.4998 20.0965 12.5975 20.1942C12.6951 20.2919 12.75 20.4244 12.75 20.5625V21.0833H14.3125C14.4506 21.0833 14.5831 21.1382 14.6808 21.2359C14.7785 21.3336 14.8333 21.466 14.8333 21.6042V22.6458C14.8333 22.784 14.7785 22.9164 14.6808 23.0141C14.5831 23.1118 14.4506 23.1667 14.3125 23.1667H31.5V13.9187ZM2.33333 28.375C2.33333 28.0987 2.44308 27.8338 2.63843 27.6384C2.83378 27.4431 3.09873 27.3333 3.375 27.3333H34.625C34.9013 27.3333 35.1662 27.4431 35.3616 27.6384C35.5569 27.8338 35.6667 28.0987 35.6667 28.375V36.7083C35.6667 36.9846 35.5569 37.2496 35.3616 37.4449C35.1662 37.6403 34.9013 37.75 34.625 37.75H3.375C3.09873 37.75 2.83378 37.6403 2.63843 37.4449C2.44308 37.2496 2.33333 36.9846 2.33333 36.7083V28.375ZM4.41667 35.6667V29.4167H33.5833V35.6667H4.41667Z" fill="#FF0141"/>
</g>
</svg>
