<svg width="42" height="42" viewBox="0 0 42 42" fill="none" xmlns="http://www.w3.org/2000/svg">
<path d="M36.7143 2.42857H5.28572C3.70776 2.42857 2.42857 3.70776 2.42857 5.28572V36.7143C2.42857 38.2922 3.70776 39.5714 5.28572 39.5714H36.7143C38.2922 39.5714 39.5714 38.2922 39.5714 36.7143V5.28572C39.5714 3.70776 38.2922 2.42857 36.7143 2.42857Z" stroke="#FF0141" stroke-width="3.57143" stroke-linecap="round" stroke-linejoin="round"/>
<path d="M2.42857 12.4286H39.5714M12.4286 12.4286L16.7143 2.42857M25.2857 12.4286L29.5714 2.42857M16.6857 31.1714V20.2286C16.6937 20.0604 16.7428 19.8968 16.8288 19.752C16.9148 19.6073 17.035 19.4859 17.1789 19.3984C17.3227 19.311 17.4859 19.2602 17.6539 19.2505C17.822 19.2408 17.9899 19.2725 18.1429 19.3429L27.6286 24.8C27.7822 24.8947 27.909 25.0271 27.997 25.1846C28.085 25.3421 28.1311 25.5196 28.1311 25.7C28.1311 25.8804 28.085 26.0579 27.997 26.2154C27.909 26.3729 27.7822 26.5053 27.6286 26.6L18.1429 32.0857C17.9873 32.1497 17.8186 32.1756 17.651 32.1613C17.4834 32.1469 17.3216 32.0928 17.1791 32.0034C17.0366 31.914 16.9175 31.7919 16.8317 31.6472C16.7459 31.5025 16.6958 31.3394 16.6857 31.1714Z" stroke="#FF0141" stroke-width="3.57143" stroke-linecap="round" stroke-linejoin="round"/>
</svg>
