<svg width="50" height="50" viewBox="0 0 50 50" fill="none" xmlns="http://www.w3.org/2000/svg">
<path d="M19.7917 6.25H30.2083C31.0371 6.25 31.832 6.57924 32.418 7.16529C33.0041 7.75134 33.3333 8.5462 33.3333 9.375C33.3333 11.3089 32.5651 13.1635 31.1976 14.531C29.8302 15.8984 27.9755 16.6667 26.0417 16.6667H23.9583C22.0245 16.6667 20.1698 15.8984 18.8023 14.531C17.4349 13.1635 16.6667 11.3089 16.6667 9.375C16.6667 8.5462 16.9959 7.75134 17.5819 7.16529C18.168 6.57924 18.9629 6.25 19.7917 6.25Z" stroke="#FF0141" stroke-width="4.16667" stroke-linecap="round" stroke-linejoin="round"/>
<path d="M8.33333 35.4167V33.3333C8.33333 28.9131 10.0893 24.6738 13.2149 21.5482C16.3405 18.4226 20.5797 16.6667 25 16.6667C29.4203 16.6667 33.6595 18.4226 36.7851 21.5482C39.9107 24.6738 41.6667 28.9131 41.6667 33.3333V35.4167C41.6667 37.6268 40.7887 39.7464 39.2259 41.3092C37.6631 42.872 35.5435 43.75 33.3333 43.75H16.6667C14.4565 43.75 12.3369 42.872 10.7741 41.3092C9.2113 39.7464 8.33333 37.6268 8.33333 35.4167Z" stroke="#FF0141" stroke-width="4.16667" stroke-linecap="round" stroke-linejoin="round"/>
</svg>
