<svg width="25" height="25" viewBox="0 0 25 25" fill="none" xmlns="http://www.w3.org/2000/svg">
<path d="M5.20833 18.75H19.7917V11.4906C19.7917 7.44584 16.5271 4.16668 12.5 4.16668C8.47292 4.16668 5.20833 7.44584 5.20833 11.4906V18.75ZM12.5 2.08334C17.6771 2.08334 21.875 6.2948 21.875 11.4906V20.8333H3.125V11.4906C3.125 6.2948 7.32292 2.08334 12.5 2.08334ZM9.89583 21.875H15.1042C15.1042 22.5657 14.8298 23.2281 14.3414 23.7164C13.853 24.2048 13.1907 24.4792 12.5 24.4792C11.8093 24.4792 11.147 24.2048 10.6586 23.7164C10.1702 23.2281 9.89583 22.5657 9.89583 21.875Z" fill="white"/>
</svg>
