<svg width="30" height="30" viewBox="0 0 30 30" fill="none" xmlns="http://www.w3.org/2000/svg">
<path d="M20.625 1.875C21.1223 1.875 21.5992 2.07254 21.9508 2.42417C22.3025 2.77581 22.5 3.25272 22.5 3.75V26.25C22.5 26.7473 22.3025 27.2242 21.9508 27.5758C21.5992 27.9275 21.1223 28.125 20.625 28.125H9.375C8.87772 28.125 8.40081 27.9275 8.04918 27.5758C7.69754 27.2242 7.5 26.7473 7.5 26.25V3.75C7.5 3.25272 7.69754 2.77581 8.04918 2.42417C8.40081 2.07254 8.87772 1.875 9.375 1.875H20.625ZM9.375 0C8.38044 0 7.42661 0.395088 6.72335 1.09835C6.02009 1.80161 5.625 2.75544 5.625 3.75V26.25C5.625 27.2446 6.02009 28.1984 6.72335 28.9016C7.42661 29.6049 8.38044 30 9.375 30H20.625C21.6196 30 22.5734 29.6049 23.2766 28.9016C23.9799 28.1984 24.375 27.2446 24.375 26.25V3.75C24.375 2.75544 23.9799 1.80161 23.2766 1.09835C22.5734 0.395088 21.6196 0 20.625 0L9.375 0Z" fill="#FE3A00"/>
<path d="M15 26.25C15.4973 26.25 15.9742 26.0525 16.3258 25.7008C16.6775 25.3492 16.875 24.8723 16.875 24.375C16.875 23.8777 16.6775 23.4008 16.3258 23.0492C15.9742 22.6975 15.4973 22.5 15 22.5C14.5027 22.5 14.0258 22.6975 13.6742 23.0492C13.3225 23.4008 13.125 23.8777 13.125 24.375C13.125 24.8723 13.3225 25.3492 13.6742 25.7008C14.0258 26.0525 14.5027 26.25 15 26.25Z" fill="#FE3A00"/>
</svg>
