<svg width="50" height="50" viewBox="0 0 50 50" fill="none" xmlns="http://www.w3.org/2000/svg">
<path d="M43.95 3.71064e-10H44.5313C47.55 3.71064e-10 50 2.45 50 5.46875V6.05C49.9974 13.3011 47.1153 20.2544 41.9875 25.3812L40.5563 26.8156C39.575 27.7969 38.5531 28.7406 37.4969 29.6406V39.6625C37.4969 41.5625 36.5125 43.325 34.8938 44.3188L26.225 49.6531C25.9205 49.8413 25.5768 49.9572 25.2205 49.9918C24.8641 50.0263 24.5046 49.9787 24.1696 49.8525C23.8345 49.7264 23.5329 49.525 23.2879 49.264C23.0429 49.003 22.861 48.6892 22.7563 48.3469L19.775 38.6531C19.6139 38.535 19.4624 38.4044 19.3219 38.2625L11.7313 30.675C11.5904 30.5343 11.4609 30.3828 11.3438 30.2219L1.65 27.2406C1.30766 27.1359 0.993907 26.954 0.732881 26.709C0.471855 26.464 0.270514 26.1623 0.144346 25.8273C0.0181784 25.4923 -0.0294528 25.1327 0.0051168 24.7764C0.0396865 24.4201 0.155536 24.0764 0.343752 23.7719L5.6875 15.1031C6.17637 14.3074 6.86108 13.6503 7.67626 13.1945C8.49143 12.7388 9.40983 12.4997 10.3438 12.5H20.3563C21.2563 11.4438 22.2 10.4219 23.1813 9.44062L24.6156 8.00937C27.1545 5.4701 30.1687 3.45582 33.4861 2.08156C36.8036 0.707298 40.3592 -1.87066e-05 43.95 3.71064e-10ZM27.9313 11.3219H27.925L26.4938 12.7531C24.1188 15.1281 22.0031 17.7469 20.1813 20.5656L15.4938 27.8062L22.1906 34.5031L29.4313 29.8156C32.25 27.9938 34.8688 25.8781 37.2406 23.5031L38.675 22.0719C40.7787 19.9677 42.4474 17.4698 43.5857 14.7208C44.7241 11.9718 45.3098 9.02541 45.3094 6.05V5.46875C45.3094 5.26155 45.2271 5.06284 45.0806 4.91632C44.934 4.76981 44.7353 4.6875 44.5281 4.6875H43.9469C37.9399 4.68803 32.179 7.07443 27.9313 11.3219ZM11.125 45.5C8.8375 47.7875 3.83125 48.7656 1.73438 49.0875C1.62133 49.1057 1.5056 49.097 1.3965 49.0623C1.2874 49.0276 1.18798 48.9677 1.10625 48.8875C1.02607 48.8058 0.966196 48.7064 0.931458 48.5973C0.89672 48.4882 0.888086 48.3724 0.906252 48.2594C1.22813 46.1625 2.20625 41.1562 4.5 38.875C4.92412 38.3942 5.44222 38.0055 6.02236 37.7327C6.6025 37.4598 7.23238 37.3087 7.87316 37.2887C8.51393 37.2687 9.15202 37.3801 9.74807 37.6162C10.3441 37.8522 10.8855 38.2079 11.3388 38.6612C11.7921 39.1145 12.1478 39.6559 12.3838 40.2519C12.6199 40.848 12.7313 41.4861 12.7113 42.1268C12.6913 42.7676 12.5402 43.3975 12.2674 43.9776C11.9945 44.5578 11.6058 45.0759 11.125 45.5ZM32.8125 33.2031C32.5375 33.3906 32.2594 33.5719 31.9813 33.75L24.6375 38.5031L26.35 44.075L32.4406 40.325C32.5543 40.2551 32.6482 40.1572 32.7133 40.0406C32.7784 39.9241 32.8125 39.7929 32.8125 39.6594V33.2031ZM11.4938 25.3625L16.25 18.0187C16.4313 17.7375 16.6156 17.4625 16.8 17.1875H10.3406C10.2072 17.1875 10.0759 17.2216 9.95937 17.2867C9.84284 17.3518 9.74494 17.4457 9.675 17.5594L5.925 23.6531L11.4938 25.3625ZM37.5 15.625C37.5 16.4538 37.1708 17.2487 36.5847 17.8347C35.9987 18.4208 35.2038 18.75 34.375 18.75C33.5462 18.75 32.7513 18.4208 32.1653 17.8347C31.5792 17.2487 31.25 16.4538 31.25 15.625C31.25 14.7962 31.5792 14.0013 32.1653 13.4153C32.7513 12.8292 33.5462 12.5 34.375 12.5C35.2038 12.5 35.9987 12.8292 36.5847 13.4153C37.1708 14.0013 37.5 14.7962 37.5 15.625Z" fill="#666666"/>
</svg>
