<svg width="50" height="50" viewBox="0 0 50 50" fill="none" xmlns="http://www.w3.org/2000/svg">
<path fill-rule="evenodd" clip-rule="evenodd" d="M19.2708 18.75C19.2708 17.2305 19.8744 15.7733 20.9489 14.6989C22.0233 13.6244 23.4805 13.0208 25 13.0208C26.5195 13.0208 27.9767 13.6244 29.0511 14.6989C30.1256 15.7733 30.7292 17.2305 30.7292 18.75C30.7292 20.2695 30.1256 21.7267 29.0511 22.8011C27.9767 23.8756 26.5195 24.4792 25 24.4792C23.4805 24.4792 22.0233 23.8756 20.9489 22.8011C19.8744 21.7267 19.2708 20.2695 19.2708 18.75ZM25 16.1458C24.3093 16.1458 23.6469 16.4202 23.1586 16.9086C22.6702 17.397 22.3958 18.0593 22.3958 18.75C22.3958 19.4407 22.6702 20.1031 23.1586 20.5914C23.6469 21.0798 24.3093 21.3542 25 21.3542C25.6907 21.3542 26.353 21.0798 26.8414 20.5914C27.3298 20.1031 27.6042 19.4407 27.6042 18.75C27.6042 18.0593 27.3298 17.397 26.8414 16.9086C26.353 16.4202 25.6907 16.1458 25 16.1458ZM25 25.5208C22.5083 25.5208 20.1771 26.0208 18.4083 26.9063C16.7354 27.7438 15.1042 29.1896 15.1042 31.25V31.3813C15.1 32.4438 15.0958 34.2354 16.7917 35.4625C17.5792 36.0312 18.6187 36.3958 19.9062 36.6271C21.2042 36.8604 22.8687 36.9792 25 36.9792C27.1312 36.9792 28.7958 36.8604 30.0937 36.6271C31.3812 36.3958 32.4208 36.0313 33.2083 35.4604C34.9042 34.2333 34.9 32.4438 34.8958 31.3792V31.25C34.8958 29.1875 33.2646 27.7438 31.5917 26.9063C29.8229 26.0229 27.4917 25.5208 25 25.5208ZM18.2292 31.25C18.2292 31.0104 18.4646 30.3729 19.8062 29.7021C21.0562 29.0771 22.8896 28.6458 25 28.6458C27.1104 28.6458 28.9458 29.0771 30.1937 29.7021C31.5354 30.3729 31.7708 31.0104 31.7708 31.25C31.7708 32.5083 31.6896 32.7021 31.375 32.9313C31.1208 33.1146 30.5979 33.3604 29.5417 33.5521C28.4958 33.7396 27.0354 33.8542 25 33.8542C22.9646 33.8542 21.5042 33.7396 20.4583 33.5521C19.4021 33.3604 18.8792 33.1146 18.625 32.9313C18.3083 32.7021 18.2292 32.5083 18.2292 31.25Z" fill="#FF0141"/>
<path fill-rule="evenodd" clip-rule="evenodd" d="M18.1729 4.27292C21.1812 3.24375 23.0479 2.60417 25 2.60417C26.9542 2.60417 28.8188 3.24375 31.8271 4.27292L33.3417 4.79375C36.4271 5.84792 38.8104 6.66458 40.5146 7.35625C41.3729 7.70417 42.1125 8.04375 42.7062 8.3875C43.2792 8.72083 43.8521 9.13542 44.2417 9.69167C44.6271 10.2396 44.8271 10.9146 44.9521 11.5667C45.0833 12.2417 45.1604 13.0521 45.2125 13.9833C45.3125 15.8292 45.3125 18.3625 45.3125 21.6458V24.9813C45.3125 37.6917 35.7125 43.7854 30.0042 46.2812L29.9479 46.3042C29.2396 46.6146 28.5729 46.9042 27.8083 47.1C27.0021 47.3083 26.1437 47.3958 25 47.3958C23.8542 47.3958 23 47.3083 22.1917 47.1C21.4271 46.9042 20.7604 46.6146 20.0521 46.3042L19.9958 46.2812C14.2875 43.7854 4.6875 37.6917 4.6875 24.9792V21.6458C4.6875 18.3625 4.6875 15.8292 4.7875 13.9813C4.83958 13.0521 4.91667 12.2417 5.04792 11.5646C5.17292 10.9146 5.37292 10.2396 5.75625 9.68958C6.14792 9.13542 6.72083 8.72083 7.29375 8.3875C7.8875 8.04375 8.62708 7.70417 9.48542 7.35625C11.1896 6.66458 13.5729 5.84792 16.6583 4.79375L18.1729 4.27292ZM25 5.72917C23.6292 5.72917 22.2812 6.17083 18.9167 7.32083L17.725 7.72917C14.5729 8.80833 12.275 9.59583 10.6625 10.25C10.0444 10.4901 9.44306 10.7713 8.8625 11.0917C8.71093 11.1771 8.56607 11.2739 8.42917 11.3813C8.38771 11.4122 8.34934 11.4471 8.31458 11.4854C8.28734 11.5345 8.26501 11.5861 8.24792 11.6396C8.20625 11.7563 8.16042 11.9229 8.11667 12.1563C8.00417 12.8163 7.93458 13.483 7.90833 14.1521C7.8125 15.9042 7.8125 18.35 7.8125 21.7021V24.9813C7.8125 35.7625 15.875 41.0708 21.2479 43.4167C22.0208 43.7542 22.4688 43.9458 22.9667 44.0729C23.4417 44.1958 24.0208 44.2708 25 44.2708C25.9792 44.2708 26.5583 44.1958 27.0333 44.0729C27.5333 43.9479 27.9792 43.7542 28.7521 43.4167C34.1271 41.0687 42.1875 35.7625 42.1875 24.9813V21.7021C42.1875 18.35 42.1875 15.9042 42.0917 14.1521C42.0655 13.483 41.9959 12.8163 41.8833 12.1563C41.8523 11.981 41.8085 11.8083 41.7521 11.6396C41.735 11.5861 41.7127 11.5345 41.6854 11.4854C41.6507 11.4471 41.6123 11.4122 41.5708 11.3813C41.434 11.2731 41.2892 11.1756 41.1375 11.0896C40.5568 10.7706 39.9555 10.4908 39.3375 10.2521C37.725 9.59583 35.4271 8.80833 32.275 7.73125L31.0812 7.32083C27.7187 6.17083 26.3708 5.72917 25 5.72917Z" fill="#FF0141"/>
</svg>
