<svg width="50" height="50" viewBox="0 0 50 50" fill="none" xmlns="http://www.w3.org/2000/svg">
<path d="M17.875 35.9375L19.7917 27.8333L13.5417 22.4583L21.7708 21.6875L25 14.1667L28.2292 21.7708L36.4583 22.4583L30.2083 27.8333L32.125 35.9375L25 31.6458L17.875 35.9375ZM25 4.16666C27.7359 4.16666 30.445 4.70553 32.9726 5.75251C35.5002 6.79948 37.7968 8.33405 39.7314 10.2686C41.6659 12.2032 43.2005 14.4998 44.2475 17.0274C45.2945 19.555 45.8333 22.2641 45.8333 25C45.8333 30.5253 43.6384 35.8244 39.7314 39.7314C35.8244 43.6384 30.5253 45.8333 25 45.8333C22.2641 45.8333 19.555 45.2945 17.0274 44.2475C14.4998 43.2005 12.2032 41.6659 10.2686 39.7314C6.36161 35.8244 4.16667 30.5253 4.16667 25C4.16667 19.4747 6.36161 14.1756 10.2686 10.2686C14.1756 6.3616 19.4747 4.16666 25 4.16666ZM25 8.33333C20.5797 8.33333 16.3405 10.0893 13.2149 13.2149C10.0893 16.3405 8.33334 20.5797 8.33334 25C8.33334 29.4203 10.0893 33.6595 13.2149 36.7851C16.3405 39.9107 20.5797 41.6667 25 41.6667C29.4203 41.6667 33.6595 39.9107 36.7851 36.7851C39.9107 33.6595 41.6667 29.4203 41.6667 25C41.6667 20.5797 39.9107 16.3405 36.7851 13.2149C33.6595 10.0893 29.4203 8.33333 25 8.33333Z" fill="#666666"/>
</svg>
